<svg width="24" height="22" viewBox="0 0 24 22" fill="none" xmlns="http://www.w3.org/2000/svg">
<rect width="24" height="22" fill="white" fill-opacity="0.01"/>
<mask id="mask0_3315_3832" style="mask-type:alpha" maskUnits="userSpaceOnUse" x="2" y="0" width="20" height="22">
<path fill-rule="evenodd" clip-rule="evenodd" d="M19 9.16698C19 5.44604 16.7616 2.86349 13.8653 2.0882C13.7605 1.83947 13.5947 1.60824 13.3694 1.41422C12.5997 0.75125 11.4002 0.75125 10.6305 1.41422C10.4057 1.60783 10.2402 1.83848 10.1353 2.08659C7.23533 2.85854 5 5.43543 5 9.16698C5 11.5814 4.46898 12.9343 3.48596 13.9147C3.32162 14.0786 2.87637 14.4541 2.57474 14.7084L2.57469 14.7085L2.57465 14.7085C2.43194 14.8288 2.32139 14.9221 2.28796 14.9529L2 15.2206V18.3466H8.08792C8.29376 19.3201 8.87002 19.9715 9.91216 20.5545C11.1941 21.2716 12.8058 21.2716 14.0878 20.5545C15.0075 20.04 15.6241 19.2493 15.8743 18.3466H22V15.2206L21.712 14.9529C21.6817 14.9247 21.5757 14.8351 21.437 14.7178C21.1363 14.4635 20.6823 14.0796 20.5154 13.9125C19.5317 12.9275 19 11.5729 19 9.16698ZM13.7367 18.3466H10.1785C10.3198 18.5875 10.5606 18.7695 10.954 18.9895C11.5962 19.3488 12.4037 19.3488 13.0459 18.9895C13.3434 18.8231 13.5758 18.6029 13.7367 18.3466ZM19.0401 15.1506C19.2506 15.3613 19.7016 15.7464 20 15.998V16.5133H3.99997V15.9984C4.29604 15.7498 4.7484 15.3649 4.95846 15.1554C6.29419 13.8232 6.99997 12.0251 6.99997 9.16709C6.99997 5.702 9.33274 3.67844 12 3.67844C14.6597 3.67844 17 5.71244 17 9.16709C17 12.0159 17.706 13.8146 19.0401 15.1506Z" fill="white"/>
</mask>
<g mask="url(#mask0_3315_3832)">
<rect width="24" height="22" fill="#454545"/>
</g>
</svg>
