<svg width="86" height="86" viewBox="0 0 86 86" fill="none" xmlns="http://www.w3.org/2000/svg">
<path d="M43.0001 0H24.3667C23.5752 0 22.9334 0.641783 22.9334 1.43334V11.4667H1.43334C0.641782 11.4667 0 12.1085 0 12.9V84.5669C0 85.3585 0.641782 86.0003 1.43334 86.0003H43.0001C43.7917 86.0003 44.4335 85.3585 44.4335 84.5669V1.43334C44.4335 0.641783 43.7917 0 43.0001 0ZM41.5668 74.5336H25.8001V71.6669H41.5668V74.5336ZM2.86668 21.5001H22.9334V64.5002H2.86668V21.5001ZM41.5668 15.7667H25.8001V11.4667H41.5668V15.7667ZM2.86668 67.3669H22.9334V71.6669H2.86668V67.3669ZM25.8001 68.8002V18.6334H41.5668V68.8002H25.8001ZM41.5668 2.86668V8.60003H25.8001V2.86668H41.5668ZM22.9334 14.3334V18.6334H2.86668V14.3334H22.9334ZM2.86668 74.5336H22.9334V83.1336H2.86668V74.5336ZM25.8001 83.1336V77.4002H41.5668V83.1336H25.8001Z" fill="#FC6464"/>
<path d="M85.9541 78.4723L68.7541 12.5387C68.6582 12.1692 68.4189 11.8536 68.0885 11.6611C67.7589 11.4693 67.3662 11.4168 66.9974 11.5155L45.4973 17.2489C44.7359 17.4518 44.281 18.2315 44.4797 18.9944L61.6798 84.9279C61.7757 85.2974 62.0157 85.6131 62.3461 85.8048C62.6757 85.9959 63.0683 86.0477 63.4365 85.9483L84.9365 80.215C85.6966 80.012 86.1508 79.2337 85.9541 78.4723ZM49.8974 28.4055L68.6281 23.412L69.3021 25.9917L50.5728 30.993L49.8974 28.4055ZM70.0258 28.773L78.3388 60.6612L59.6152 65.6569L51.3021 33.7666L70.0258 28.773ZM79.0688 63.4362L80.5364 69.0611L61.8058 74.0547L60.3437 68.4319L79.0688 63.4362ZM66.3437 14.6559L67.9044 20.6398L49.1738 25.6319L47.6145 19.6508L66.3437 14.6559ZM64.0901 82.8108L62.5294 76.8269L81.2601 71.8319L82.8194 77.813L64.0901 82.8108Z" fill="#FC6464"/>
<path d="M18.6334 25.8008H7.16674C6.37518 25.8008 5.7334 26.4426 5.7334 27.2341V38.7008C5.7334 39.4924 6.37518 40.1342 7.16674 40.1342H18.6334C19.425 40.1342 20.0668 39.4924 20.0668 38.7008V27.2341C20.0668 26.4426 19.425 25.8008 18.6334 25.8008ZM17.2001 37.2675H8.60007V28.6675H17.2001V37.2675Z" fill="#FC6464"/>
</svg>
