<svg width="79" height="94" viewBox="0 0 79 94" fill="none" xmlns="http://www.w3.org/2000/svg">
<path d="M39.5296 59.533H37.1551C37.113 59.533 37.0786 59.4985 37.0786 59.4559V55.8116C37.0786 55.0516 36.4686 54.4355 35.7161 54.4355C34.9636 54.4355 34.3535 55.0516 34.3535 55.8116V59.4559C34.3535 61.016 35.6103 62.2851 37.1551 62.2851H39.5296C41.3435 62.2851 42.8192 63.7754 42.8192 65.6072V78.1116C42.8192 78.4767 42.7057 78.8251 42.4908 79.1189L37.1966 86.3593C37.0234 86.5959 36.93 86.8825 36.93 87.1766V92.6236C36.93 93.3835 37.5401 93.9996 38.2926 93.9996C39.0451 93.9996 39.6552 93.3835 39.6552 92.6236V87.6296L44.6829 80.7538C45.2464 79.9832 45.5442 79.0695 45.5442 78.1116V65.6072C45.5444 62.2581 42.8461 59.533 39.5296 59.533Z" fill="#FC6464"/>
<path d="M34.3535 49.9473C34.3535 50.7072 34.9636 51.3233 35.7161 51.3233C36.4686 51.3233 37.0786 50.7072 37.0786 49.9473V36.6708C37.0786 33.5208 34.541 30.958 31.422 30.958C28.303 30.958 25.7653 33.5208 25.7653 36.6708V49.093C25.0897 48.7457 24.3263 48.5485 23.5176 48.5485H22.1496C20.5407 48.5485 19.1086 49.3247 18.1991 50.5254C17.3241 49.7524 16.1805 49.2824 14.9295 49.2824H13.5615C11.8014 49.2824 10.253 50.2115 9.36913 51.6088C8.52978 50.956 7.48006 50.5667 6.34132 50.5667H4.97331C2.23128 50.5667 0.000488281 52.8195 0.000488281 55.5885V67.4447C0.000488281 68.2046 0.610554 68.8207 1.36305 68.8207C2.11555 68.8207 2.72562 68.2046 2.72562 67.4447V55.5885C2.72562 54.337 3.73392 53.3188 4.97331 53.3188H6.34132C7.58071 53.3188 8.58901 54.337 8.58901 55.5885V55.947C8.58901 56.7069 9.19908 57.323 9.95158 57.323C10.7041 57.323 11.3141 56.7069 11.3141 55.947V54.3042C11.3141 53.0527 12.3224 52.0344 13.5616 52.0344H14.9297C16.1691 52.0344 17.1774 53.0527 17.1774 54.3042V55.947C17.1774 56.7069 17.7874 57.323 18.5399 57.323C19.2924 57.323 19.9025 56.7069 19.9025 55.947V54.3042C19.9025 54.1409 19.8941 53.9796 19.8789 53.8202C19.8936 53.7391 19.9025 53.6558 19.9025 53.5703C19.9025 52.3188 20.9108 51.3006 22.15 51.3006H23.518C24.7572 51.3006 25.7655 52.3188 25.7655 53.5703V53.5721V55.947C25.7655 56.7069 26.3756 57.323 27.1281 57.323C27.8806 57.323 28.4906 56.7069 28.4906 55.947V36.6708C28.4906 35.0383 29.8058 33.7101 31.4222 33.7101C33.0385 33.7101 34.3537 35.0383 34.3537 36.6708V49.9473H34.3535Z" fill="#FC6464"/>
<path d="M3.53504 81.0401C3.01272 80.3677 2.72513 79.527 2.72513 78.6727V73.3096C2.72513 72.5497 2.11506 71.9336 1.36257 71.9336C0.610066 71.9336 0 72.5497 0 73.3096V78.6727C0 80.14 0.493975 81.5841 1.39072 82.7387L3.40514 85.3322V92.6244C3.40514 93.3843 4.01521 94.0004 4.76771 94.0004C5.52021 94.0004 6.13027 93.3843 6.13027 92.6244V84.8571C6.13027 84.5492 6.02799 84.2501 5.83977 84.0078L3.53504 81.0401Z" fill="#FC6464"/>
<path d="M64.3255 16.0925L57.2306 13.6662L52.9487 9.34159C52.4165 8.8042 51.5538 8.80401 51.0218 9.34159C50.4895 9.87898 50.4895 10.7501 51.0216 11.2875L54.5652 14.8663L47.1214 22.3838C46.5893 22.9212 46.5893 23.7925 47.1214 24.3297C47.3876 24.5983 47.7364 24.7328 48.085 24.7328C48.4337 24.7328 48.7825 24.5985 49.0487 24.3297L56.8572 16.4438L63.4517 18.6989C63.8928 18.8497 64.0225 19.2209 64.0578 19.3733C64.093 19.5258 64.1395 19.9166 63.8103 20.2492L41.9115 42.3651C41.6764 42.6025 41.4088 42.6428 41.2232 42.6355C40.4759 42.6014 39.8363 43.1931 39.8045 43.9525C39.7727 44.7117 40.3566 45.3533 41.1085 45.3852C41.1619 45.3876 41.2152 45.3887 41.2682 45.3887C42.2396 45.3887 43.1471 45.0096 43.8386 44.3113L50.1787 37.9083C51.3496 38.9574 52.84 39.5319 54.4186 39.5319C56.1278 39.5319 57.7347 38.8596 58.943 37.6393L59.1302 37.4506C61.5323 35.0245 61.6204 31.1339 59.3967 28.5991L65.737 22.1961C66.6361 21.2879 67.0004 19.9988 66.7109 18.7482C66.4219 17.4971 65.5301 16.5046 64.3255 16.0925ZM57.2035 35.5039L57.0164 35.6927C56.3226 36.3936 55.4 36.7794 54.4186 36.7794C53.5862 36.7794 52.7959 36.5016 52.1518 35.9897L57.4971 30.5916C58.628 32.0465 58.5299 34.1644 57.2035 35.5039Z" fill="#FC6464"/>
<path d="M24.9462 10.1516C22.0866 15.9835 23.0536 23.2584 27.8555 28.1077L27.8964 28.1492C28.1625 28.4185 28.5117 28.5534 28.8609 28.5534C29.2092 28.5534 29.5573 28.4195 29.8232 28.1514C30.3559 27.6146 30.357 26.7434 29.8254 26.2055L29.7834 26.1631C24.8252 21.1558 24.8252 13.0085 29.7834 8.00113C32.05 5.71194 35.0609 4.38048 38.2613 4.25168C41.443 4.12362 44.5322 5.19033 46.9576 7.25513C47.533 7.74501 48.3925 7.67125 48.8775 7.08982C49.3626 6.50877 49.2894 5.64076 48.714 5.15088C45.7671 2.64226 42.0144 1.34639 38.1529 1.50179C35.9573 1.59004 33.8357 2.14487 31.9087 3.1114L30.2683 1.45482C28.3475 -0.485033 25.2221 -0.48485 23.3013 1.45482C22.3707 2.39457 21.8584 3.64402 21.8584 4.97291C21.8584 6.30181 22.3707 7.55126 23.3013 8.49082L24.9462 10.1516ZM25.2285 3.40074C26.0867 2.53401 27.4834 2.53401 28.3417 3.40074L29.5244 4.59514C28.9388 5.03841 28.3811 5.52517 27.8566 6.05485C27.3281 6.58858 26.8487 7.15331 26.4128 7.7406L25.2285 6.54436C24.8126 6.12457 24.5837 5.56627 24.5837 4.97255C24.5837 4.37883 24.8126 3.82071 25.2285 3.40074Z" fill="#FC6464"/>
<path d="M43.0832 26.4626L42.2814 27.2723C41.7493 27.8097 41.7493 28.681 42.2814 29.2182C42.5476 29.4868 42.8964 29.6213 43.245 29.6213C43.5937 29.6213 43.9425 29.487 44.2086 29.2182L45.0104 28.4085C45.5425 27.8711 45.5425 26.9998 45.0104 26.4626C44.4781 25.9252 43.6155 25.9252 43.0832 26.4626Z" fill="#FC6464"/>
<path d="M13.6511 29.1653C14.0066 29.1653 14.362 29.0254 14.629 28.7473C15.153 28.2018 15.1401 27.3307 14.5998 26.8016C13.0523 25.2854 12.2002 23.2572 12.2002 21.091C12.2002 18.9247 13.0525 16.8964 14.6 15.3802C15.1401 14.8511 15.153 13.9799 14.629 13.4345C14.1051 12.8888 13.2425 12.876 12.7024 13.4051C10.6213 15.4441 9.4751 18.1736 9.4751 21.091C9.4751 24.0084 10.6213 26.7379 12.7024 28.7768C12.9671 29.0361 13.3092 29.1653 13.6511 29.1653Z" fill="#FC6464"/>
<path d="M16.7788 25.0887C17.0337 25.3036 17.3434 25.4085 17.6516 25.4085C18.0414 25.4085 18.4286 25.2403 18.6982 24.9146C19.1806 24.3312 19.1033 23.4635 18.5258 22.9764C17.9691 22.5069 17.6499 21.819 17.6499 21.0892C17.6499 20.3593 17.9691 19.6713 18.5258 19.2018C19.1033 18.7147 19.1806 17.8469 18.6982 17.2636C18.2157 16.6802 17.3563 16.6024 16.779 17.0895C15.6006 18.0834 14.9248 19.5412 14.9248 21.089C14.9246 22.6371 15.6005 24.0948 16.7788 25.0887Z" fill="#FC6464"/>
<path d="M75.7728 13.4051C75.2323 12.8757 74.3697 12.8891 73.8461 13.4344C73.322 13.9799 73.3351 14.851 73.8752 15.3801C75.4227 16.8965 76.275 18.9247 76.275 21.0909C76.275 23.2574 75.4227 25.2853 73.8752 26.8015C73.3351 27.3306 73.322 28.2018 73.8461 28.7472C74.1134 29.0254 74.4686 29.165 74.8243 29.165C75.166 29.165 75.5083 29.0358 75.773 28.7766C77.8541 26.7375 79.0003 24.008 79.0003 21.0907C79.0003 18.1735 77.8541 15.4444 75.7728 13.4051Z" fill="#FC6464"/>
<path d="M71.6956 17.0914C71.1183 16.6044 70.2589 16.682 69.7766 17.2655C69.2942 17.8487 69.3713 18.7166 69.9488 19.2037C70.5053 19.6732 70.8247 20.3612 70.8247 21.0911C70.8247 21.8209 70.5053 22.5088 69.9488 22.9781C69.3711 23.4652 69.2939 24.333 69.7762 24.9163C70.0456 25.2423 70.4328 25.4104 70.8229 25.4104C71.1308 25.4104 71.4405 25.3056 71.6954 25.0906C72.874 24.0967 73.55 22.639 73.55 21.0909C73.5498 19.5431 72.874 18.0852 71.6956 17.0914Z" fill="#FC6464"/>
</svg>
