<svg width="24" height="24" viewBox="0 0 24 24" fill="none" xmlns="http://www.w3.org/2000/svg">
<rect width="24" height="24" fill="white" fill-opacity="0.01"/>
<mask id="mask0_3315_3847" style="mask-type:alpha" maskUnits="userSpaceOnUse" x="0" y="1" width="23" height="22">
<path fill-rule="evenodd" clip-rule="evenodd" d="M11.9998 23C5.92462 23 0.999756 18.0751 0.999756 12C0.999756 5.92487 5.92462 1 11.9998 1C18.0749 1 22.9998 5.92487 22.9998 12C22.9998 18.0751 18.0749 23 11.9998 23ZM19.3992 17.1247C20.4084 15.6704 20.9998 13.9043 20.9998 12C20.9998 7.02944 16.9703 3 11.9998 3C7.02919 3 2.99976 7.02944 2.99976 12C2.99976 13.9042 3.59112 15.6703 4.60021 17.1246C5.7254 15.6384 8.36894 15.0003 11.9968 15M17.9643 18.7398C17.6717 17.6874 15.5691 17 11.9996 17C8.43035 17 6.32775 17.6873 6.03498 18.7397C7.62298 20.1461 9.71165 21 11.9998 21C14.2878 21 16.3764 20.1462 17.9643 18.7398ZM9.99988 9.99988C9.99988 12.2691 10.8181 12.9999 11.9999 12.9999C13.1776 12.9999 13.9999 12.2983 13.9999 10.1999C13.9999 8.9503 13.2155 7.99988 11.9999 7.99988C10.7336 7.99988 9.99988 8.8157 9.99988 9.99988Z" fill="white"/>
</mask>
<g mask="url(#mask0_3315_3847)">
<rect width="24" height="24" fill="#454545"/>
</g>
</svg>
