<svg width="87" height="87" viewBox="0 0 87 87" fill="none" xmlns="http://www.w3.org/2000/svg">
<path d="M10.3735 60.8408C10.8204 60.8408 11.2588 60.6607 11.5749 60.343C11.8926 60.0269 12.0728 59.59 12.0728 59.1416C12.0728 58.6947 11.8926 58.2563 11.5749 57.9403C11.2588 57.6244 10.8204 57.4424 10.3735 57.4424C9.92664 57.4424 9.48994 57.6242 9.17219 57.9403C8.85613 58.2563 8.67432 58.6947 8.67432 59.1416C8.67432 59.5902 8.85613 60.0286 9.17219 60.343C9.48994 60.6607 9.92664 60.8408 10.3735 60.8408Z" fill="#FC6464"/>
<path d="M41.3055 37.5707C41.969 36.9071 41.969 35.8312 41.3055 35.1675C40.6419 34.5041 39.566 34.5041 38.9023 35.1675C38.5813 35.4884 38.1546 35.6653 37.7008 35.6653C37.2469 35.6653 36.8202 35.4884 36.4993 35.1675C35.8357 34.5041 34.7598 34.5041 34.096 35.1675C33.4325 35.831 33.4325 36.9069 34.096 37.5707C35.0899 38.5645 36.3953 39.0612 37.7006 39.0612C39.0059 39.0612 40.3118 38.5645 41.3055 37.5707Z" fill="#FC6464"/>
<path d="M78.3481 76.141V70.9806C82.748 69.0209 85.8246 64.6094 85.8246 59.4902V47.2447C85.8246 40.3112 80.1839 34.6705 73.2504 34.6705C66.3169 34.6705 60.6762 40.3112 60.6762 47.2447V53.4753C56.1113 50.5754 50.9421 48.9253 45.4959 48.6417V45.8619C50.0814 43.1751 53.1679 38.1954 53.1679 32.5078V27.9471C53.1257 28.0162 53.2185 27.8855 53.1679 27.9471C54.9053 25.0951 55.9639 21.6183 55.9639 18.2627V1.69922C55.9639 0.76091 55.2032 0 54.2647 0H34.5276C26.2072 0 19.4382 6.76918 19.4382 15.0896V18.2629C19.4382 21.6185 20.4968 25.0951 22.2343 27.9472C22.1836 27.8857 22.2764 28.0164 22.2343 27.9472V32.5079C22.2343 38.1955 25.3207 43.1751 29.9062 45.8621V48.6432C28.0539 48.7426 26.22 49.0056 24.4251 49.4233C24.4128 49.4264 24.4003 49.4282 24.388 49.4315C21.2837 50.1575 18.2972 51.3495 15.54 52.9799C14.7322 53.4576 14.4646 54.4996 14.9423 55.3074C15.2593 55.8438 15.8253 56.142 16.4065 56.142C16.7004 56.142 16.9983 56.0656 17.2698 55.905C19.2034 54.7616 21.264 53.8613 23.4027 53.2129C24.7605 59.9041 30.6869 64.891 37.7011 64.891C44.7139 64.891 50.6479 59.8947 52.0014 53.1983C55.1019 54.1366 58.0239 55.6158 60.6762 57.603V59.4902C60.6762 64.6094 63.7528 69.0207 68.1528 70.9806V76.141C64.9018 76.325 62.0981 78.2082 60.6189 80.9153V72.3867C60.6189 71.4484 59.8582 70.6875 58.9197 70.6875C57.9813 70.6875 57.2205 71.4484 57.2205 72.3867V83.6016H18.1816V72.3867C18.1816 71.4484 17.4209 70.6875 16.4824 70.6875C15.5439 70.6875 14.7832 71.4484 14.7832 72.3867V83.6016H3.39844V80.2031C3.39844 75.2173 4.71618 70.3179 7.20911 66.035C7.68115 65.2242 7.40638 64.1837 6.59535 63.7117C5.78414 63.2398 4.74388 63.5142 4.27201 64.3255C1.4773 69.1268 0 74.6173 0 80.2031V85.3008C0 86.2391 0.76074 87 1.69922 87H85.3008C86.2393 87 87 86.2391 87 85.3008C87 80.4172 83.1647 76.4135 78.3481 76.141ZM22.8367 15.0896C22.8367 8.64308 28.0813 3.39844 34.5276 3.39844H52.5655V18.2629C52.5655 19.9456 52.2821 21.6052 51.7341 23.1734C51.0377 21.8103 50.416 20.4091 49.875 18.9835C49.6199 18.3111 48.7732 17.912 48.0818 17.912C48.2187 17.878 47.9462 17.912 48.0818 17.912C44.7736 18.7339 41.1449 19.1759 37.7011 19.1759C34.2578 19.1759 30.8342 18.759 27.5255 17.937C26.691 17.73 25.8322 18.1791 25.527 18.9833C24.9862 20.4088 24.3643 21.81 23.6679 23.1733C23.1199 21.6051 22.8365 19.9454 22.8365 18.2627L22.8367 15.0896ZM25.6327 32.5079V26.674C26.5782 25.0273 27.4234 23.3194 28.1544 21.5697C31.277 22.2368 34.4817 22.5745 37.7011 22.5745C40.9209 22.5745 44.1255 22.237 47.248 21.5699C47.979 23.3197 48.8242 25.0275 49.7694 26.674V32.5079C49.7694 39.1624 44.3556 44.5761 37.7011 44.5761C31.0466 44.5761 25.6327 39.1624 25.6327 32.5079ZM37.7011 47.9746C39.2278 47.9746 40.7033 47.7511 42.0975 47.337V50.2969L42.0976 50.2987C42.0976 52.723 40.1254 54.6955 37.7011 54.6955C35.2768 54.6955 33.3047 52.7232 33.3047 50.2991V50.2969V47.337C34.6989 47.7511 36.1743 47.9746 37.7011 47.9746ZM37.7011 61.4925C32.2818 61.4925 27.7105 57.6122 26.7124 52.4246C27.8313 52.2282 28.964 52.1003 30.1045 52.0398C30.8977 55.5023 34.0014 58.0941 37.7011 58.0941C41.402 58.0941 44.5064 55.5006 45.2985 52.0364C46.4444 52.0955 47.5766 52.2219 48.6913 52.4151C47.6959 57.6057 43.1187 61.4925 37.7011 61.4925ZM64.0746 52.8019H82.4262V56.2003H64.0746V52.8019ZM73.2504 38.069C78.31 38.069 82.4262 42.1853 82.4262 47.2447V49.4034H64.0746V47.2447C64.0746 42.1853 68.191 38.069 73.2504 38.069ZM64.0775 59.5987H82.4237C82.365 64.6082 78.2738 68.6659 73.2506 68.6659C68.2274 68.6659 64.1362 64.6082 64.0775 59.5987ZM74.9496 72.0645V76.125H71.5512V72.0645H74.9496ZM63.1544 83.6016C63.8816 81.2425 66.0821 79.5234 68.6768 79.5234H77.8242C80.4188 79.5234 82.6194 81.2425 83.3467 83.6016H63.1544Z" fill="#FC6464"/>
<path d="M66.4522 26.271C65.7887 26.9346 65.7887 28.0105 66.4522 28.6742C67.1158 29.3376 68.1917 29.3376 68.8553 28.6742C70.0546 27.4749 71.649 26.8146 73.345 26.8146C75.0408 26.8146 76.6353 27.4751 77.8345 28.6742C78.1663 29.0059 78.6012 29.1719 79.036 29.1719C79.4708 29.1719 79.9058 29.0059 80.2375 28.6742C80.901 28.0107 80.9012 26.9348 80.2375 26.271C78.3964 24.4299 75.9485 23.416 73.3448 23.416C70.7413 23.4162 68.2934 24.4299 66.4522 26.271Z" fill="#FC6464"/>
<path d="M63.8459 23.8312C66.3578 21.3191 69.6978 19.9355 73.2504 19.9355C76.8029 19.9355 80.1429 21.3191 82.6549 23.8312C82.9867 24.1629 83.4215 24.3289 83.8564 24.3289C84.2912 24.3289 84.7262 24.1629 85.0579 23.8312C85.7214 23.1676 85.7216 22.0917 85.0579 21.428C81.904 18.2739 77.7106 16.5371 73.2502 16.5371C68.7897 16.5371 64.5964 18.2741 61.4425 21.428C60.7789 22.0915 60.7789 23.1675 61.4425 23.8312C62.1064 24.4946 63.1823 24.4946 63.8459 23.8312Z" fill="#FC6464"/>
</svg>
