<svg width="85" height="85" viewBox="0 0 85 85" fill="none" xmlns="http://www.w3.org/2000/svg">
<path d="M36.1406 37.241C36.5259 37.4798 36.9558 37.5992 37.3857 37.5992C37.8156 37.5992 38.2457 37.4798 38.6309 37.241L52.2118 28.8249C52.9822 28.3474 53.4569 27.4651 53.4569 26.5101C53.4569 25.5552 52.9822 24.6727 52.2118 24.1954L38.6309 15.7791C37.8604 15.3015 36.9111 15.3015 36.1406 15.7791C35.3701 16.2566 34.8955 17.1389 34.8955 18.0939V34.9264C34.8955 35.8812 35.3701 36.7636 36.1406 37.241ZM39.876 22.7233L45.9862 26.51L39.876 30.2965V22.7233Z" fill="#FC6464"/>
<path d="M36.1406 37.241C36.5259 37.4798 36.9558 37.5992 37.3857 37.5992C37.8156 37.5992 38.2457 37.4798 38.6309 37.241L52.2118 28.8249C52.9822 28.3474 53.4569 27.4651 53.4569 26.5101C53.4569 25.5552 52.9822 24.6727 52.2118 24.1954L38.6309 15.7791C37.8604 15.3015 36.9111 15.3015 36.1406 15.7791C35.3701 16.2566 34.8955 17.1389 34.8955 18.0939V34.9264C34.8955 35.8812 35.3701 36.7636 36.1406 37.241ZM39.876 22.7233L45.9862 26.51L39.876 30.2965V22.7233Z" stroke="#219EBC"/>
<path d="M79.7479 63.7045C81.5731 61.7881 82.7088 59.1182 82.7088 56.1676C82.7088 51.6652 80.0665 47.8146 76.3596 46.3034V2.67297C76.3596 1.19678 75.2446 0 73.8693 0H11.1154C9.74014 0 8.62518 1.19678 8.62518 2.67297V46.3101C4.92651 47.8256 2.29135 51.6717 2.29135 56.1678C2.29135 59.1184 3.42706 61.7883 5.25224 63.7046C2.0825 66.0531 0 69.9772 0 74.4152V82.327C0 83.8032 1.11496 85 2.49023 85C3.86551 85 4.98047 83.8032 4.98047 82.327V74.4152C4.98047 70.1902 8.18291 66.7527 12.1191 66.7527C16.0554 66.7527 19.2578 70.1902 19.2578 74.4152V82.327C19.2578 83.8032 20.3728 85 21.748 85C23.1233 85 24.2383 83.8032 24.2383 82.327V74.4152C24.2383 69.9774 22.1558 66.0533 18.9862 63.7046C20.7078 61.897 21.8151 59.419 21.9353 56.6673H32.6764C32.7966 59.419 33.9039 61.8972 35.6255 63.7046C32.4557 66.0533 30.3732 69.9774 30.3732 74.4152V82.327C30.3732 83.8032 31.4882 85 32.8635 85C34.2387 85 35.3537 83.8032 35.3537 82.327V74.4152C35.3537 70.1902 38.5561 66.7527 42.4924 66.7527C46.4286 66.7527 49.631 70.1902 49.631 74.4152V82.327C49.631 83.8032 50.746 85 52.1213 85C53.4965 85 54.6115 83.8032 54.6115 82.327V74.4152C54.6115 69.9774 52.529 66.0533 49.3593 63.7046C51.0808 61.897 52.1883 59.419 52.3084 56.6673H63.0647C63.1849 59.419 64.2922 61.897 66.0138 63.7046C62.8442 66.0531 60.7617 69.9772 60.7617 74.4152V82.327C60.7617 83.8032 61.8767 85 63.252 85C64.6272 85 65.7422 83.8032 65.7422 82.327V74.4152C65.7422 70.1902 68.9446 66.7527 72.8809 66.7527C76.8171 66.7527 80.0195 70.1902 80.0195 74.4152V82.327C80.0195 83.8032 81.1345 85 82.5098 85C83.885 85 85 83.8032 85 82.327V74.4152C85 69.9774 82.9175 66.0533 79.7479 63.7045ZM72.8809 61.3708C70.208 61.3708 68.0334 59.0366 68.0334 56.1676C68.0334 53.2986 70.208 50.9646 72.8809 50.9646C75.5537 50.9646 77.7282 53.2988 77.7282 56.1676C77.7283 59.0368 75.5539 61.3708 72.8809 61.3708ZM71.3791 5.34593V45.7418C68.2314 46.2621 65.5739 48.3926 64.1561 51.3212H51.2171C49.5789 47.937 46.284 45.6186 42.4924 45.6186C38.7007 45.6186 35.4058 47.937 33.7676 51.3212H20.8441C19.4242 48.388 16.7601 46.2552 13.6058 45.7393V5.34593H71.3791ZM47.3399 56.1676C47.3399 59.0368 45.1652 61.3708 42.4924 61.3708C39.8195 61.3708 37.6449 59.0366 37.6449 56.1676C37.6449 53.2986 39.8195 50.9646 42.4924 50.9646C45.1652 50.9646 47.3399 53.2988 47.3399 56.1676ZM12.1191 50.9646C14.792 50.9646 16.9665 53.2988 16.9665 56.1676C16.9665 59.0368 14.792 61.3708 12.1191 61.3708C9.44629 61.3708 7.27182 59.0368 7.27182 56.1676C7.27182 53.2988 9.44629 50.9646 12.1191 50.9646Z" fill="#FC6464"/>
<path d="M79.7479 63.7045C81.5731 61.7881 82.7088 59.1182 82.7088 56.1676C82.7088 51.6652 80.0665 47.8146 76.3596 46.3034V2.67297C76.3596 1.19678 75.2446 0 73.8693 0H11.1154C9.74014 0 8.62518 1.19678 8.62518 2.67297V46.3101C4.92651 47.8256 2.29135 51.6717 2.29135 56.1678C2.29135 59.1184 3.42706 61.7883 5.25224 63.7046C2.0825 66.0531 0 69.9772 0 74.4152V82.327C0 83.8032 1.11496 85 2.49023 85C3.86551 85 4.98047 83.8032 4.98047 82.327V74.4152C4.98047 70.1902 8.18291 66.7527 12.1191 66.7527C16.0554 66.7527 19.2578 70.1902 19.2578 74.4152V82.327C19.2578 83.8032 20.3728 85 21.748 85C23.1233 85 24.2383 83.8032 24.2383 82.327V74.4152C24.2383 69.9774 22.1558 66.0533 18.9862 63.7046C20.7078 61.897 21.8151 59.419 21.9353 56.6673H32.6764C32.7966 59.419 33.9039 61.8972 35.6255 63.7046C32.4557 66.0533 30.3732 69.9774 30.3732 74.4152V82.327C30.3732 83.8032 31.4882 85 32.8635 85C34.2387 85 35.3537 83.8032 35.3537 82.327V74.4152C35.3537 70.1902 38.5561 66.7527 42.4924 66.7527C46.4286 66.7527 49.631 70.1902 49.631 74.4152V82.327C49.631 83.8032 50.746 85 52.1213 85C53.4965 85 54.6115 83.8032 54.6115 82.327V74.4152C54.6115 69.9774 52.529 66.0533 49.3593 63.7046C51.0808 61.897 52.1883 59.419 52.3084 56.6673H63.0647C63.1849 59.419 64.2922 61.897 66.0138 63.7046C62.8442 66.0531 60.7617 69.9772 60.7617 74.4152V82.327C60.7617 83.8032 61.8767 85 63.252 85C64.6272 85 65.7422 83.8032 65.7422 82.327V74.4152C65.7422 70.1902 68.9446 66.7527 72.8809 66.7527C76.8171 66.7527 80.0195 70.1902 80.0195 74.4152V82.327C80.0195 83.8032 81.1345 85 82.5098 85C83.885 85 85 83.8032 85 82.327V74.4152C85 69.9774 82.9175 66.0533 79.7479 63.7045ZM72.8809 61.3708C70.208 61.3708 68.0334 59.0366 68.0334 56.1676C68.0334 53.2986 70.208 50.9646 72.8809 50.9646C75.5537 50.9646 77.7282 53.2988 77.7282 56.1676C77.7283 59.0368 75.5539 61.3708 72.8809 61.3708ZM71.3791 5.34593V45.7418C68.2314 46.2621 65.5739 48.3926 64.1561 51.3212H51.2171C49.5789 47.937 46.284 45.6186 42.4924 45.6186C38.7007 45.6186 35.4058 47.937 33.7676 51.3212H20.8441C19.4242 48.388 16.7601 46.2552 13.6058 45.7393V5.34593H71.3791ZM47.3399 56.1676C47.3399 59.0368 45.1652 61.3708 42.4924 61.3708C39.8195 61.3708 37.6449 59.0366 37.6449 56.1676C37.6449 53.2986 39.8195 50.9646 42.4924 50.9646C45.1652 50.9646 47.3399 53.2988 47.3399 56.1676ZM12.1191 50.9646C14.792 50.9646 16.9665 53.2988 16.9665 56.1676C16.9665 59.0368 14.792 61.3708 12.1191 61.3708C9.44629 61.3708 7.27182 59.0368 7.27182 56.1676C7.27182 53.2988 9.44629 50.9646 12.1191 50.9646Z" stroke="#219EBC"/>
</svg>
